<svg xmlns="http://www.w3.org/2000/svg" viewBox="0 0 24 24"><defs><style>.a{fill:none;stroke:#000;stroke-linecap:round;stroke-linejoin:round;}</style></defs><title>accounting-document</title><line class="a" x1="8.504" y1="5.5" x2="8.504" y2="4.5"/><path class="a" d="M10,5.5H7.971a1.342,1.342,0,0,0-.5,2.587l2.064.826a1.342,1.342,0,0,1-.5,2.587H7"/><line class="a" x1="8.504" y1="12.5" x2="8.504" y2="11.5"/><path class="a" d="M20.5,22.5a1,1,0,0,1-1,1H4.5a1,1,0,0,1-1-1V1.5a1,1,0,0,1,1-1H14.09A1,1,0,0,1,14.8.793l5.414,5.414a1,1,0,0,1,.293.707Z"/><path class="a" d="M14.5.59V5.5a1,1,0,0,0,1,1h4.91"/><line class="a" x1="6.587" y1="16.5" x2="17.504" y2="16.5"/><line class="a" x1="12.52" y1="13.5" x2="17.504" y2="13.5"/><line class="a" x1="14.504" y1="10.5" x2="17.504" y2="10.5"/><line class="a" x1="6.587" y1="19.5" x2="17.504" y2="19.5"/></svg>