<?xml version="1.0" encoding="UTF-8"?>
<svg width="24px" height="24px" viewBox="0 0 24 24" version="1.1" xmlns="http://www.w3.org/2000/svg" xmlns:xlink="http://www.w3.org/1999/xlink">
    <!-- Generator: sketchtool 63.1 (101010) - https://sketch.com -->
    <title>C15572D6-915B-48FA-AB5C-1596466DA882</title>
    <desc>Created with sketchtool.</desc>
    <g id="v1.0-Add-ons-page" stroke="none" stroke-width="1" fill="none" fill-rule="evenodd" stroke-linecap="round" stroke-linejoin="round">
        <g id="Icons-sheet" transform="translate(-245.000000, -230.000000)" stroke="#39464E" stroke-width="1.5">
            <g id="Icon-/-mobile-phone-blackberry" transform="translate(246.000000, 230.000000)">
                <path d="M21.4999999,21.75 L21.4999999,21.75 C21.4999999,22.578427 20.828427,23.25 19.9999999,23.25 L1.99999993,23.25 L1.99999993,23.25 C1.17157293,23.25 0.499999934,22.578427 0.499999934,21.75 C0.499999934,21.75 0.499999934,21.75 0.499999934,21.75 L0.499999934,2.24999999 L0.499999934,2.24999999 C0.499999934,1.42157323 1.17157293,0.749999986 1.99999993,0.749999986 L17.0449999,0.749999986 L17.045,0.749999986 C17.436544,0.749999986 17.812655,0.902663226 18.093,1.17600023 L21.047,4.05900023 L21.0470001,4.05900026 C21.3366111,4.34129226 21.4999999,4.72857026 21.4999999,5.13300026 L21.4999999,21.75 Z M5.05,8.25 L17.05,8.25 M5.05,12.75 L17.05,12.75 M5.05,17.25 L11.05,17.25" id="Icon"></path>
            </g>
        </g>
    </g>
</svg>