<?xml version="1.0" encoding="UTF-8"?>
<svg width="24px" height="24px" viewBox="0 0 24 24" version="1.1" xmlns="http://www.w3.org/2000/svg" xmlns:xlink="http://www.w3.org/1999/xlink">
    <!-- Generator: sketchtool 63.1 (101010) - https://sketch.com -->
    <title>43B3F8B4-7765-4699-BF61-CB41927DD082</title>
    <desc>Created with sketchtool.</desc>
    <g id="v1.0-Add-ons-page" stroke="none" stroke-width="1" fill="none" fill-rule="evenodd" stroke-linecap="round" stroke-linejoin="round">
        <g id="Icons-sheet" transform="translate(-173.000000, -230.000000)" stroke="#39464E" stroke-width="1.5">
            <g id="Icon-/-mobile-phone-blackberry" transform="translate(173.000000, 230.000000)">
                <path d="M18.75,14.25 L16.717,14.25 L16.7169999,14.25 C15.9758339,14.2505177 15.3754199,14.851771 15.3759396,15.59294 C15.3763223,16.140354 15.7091559,16.63267 16.2170019,16.837 L18.2810019,17.663 L18.2810018,17.663 C18.9685968,17.93966 19.3017218,18.72134 19.0250648,19.40894 C18.8207278,19.916787 18.3284158,20.24962 17.7810048,20.25 L15.7500048,20.25 M17.25,14.25 L17.25,13.5 M17.25,21 L17.25,20.25 M21.4926,13.0074 C23.83575,15.35055 23.83575,19.14954 21.4926,21.49268 C19.14945,23.83583 15.35046,23.83583 13.00732,21.49268 C10.66417,19.14953 10.66417,15.35054 13.00732,13.0074 C15.35047,10.66425 19.14946,10.66425 21.4926,13.0074 M20.2499999,8.25 L20.2499999,2.25 L20.2499999,2.25 C20.2499999,1.421573 19.578427,0.75 18.7499999,0.75 L2.24999993,0.75 L2.24999993,0.75 C1.42157293,0.75 0.749999934,1.421573 0.749999934,2.25 C0.749999934,2.25 0.749999934,2.25 0.749999934,2.25 L0.749999934,14.25 L0.749999934,14.25 C0.749999934,15.0784268 1.42157293,15.75 2.24999993,15.75 L8.24999993,15.75 M0.75,5.25 L20.25,5.25 M3.75,9 L9.75,9 M3.75,12 L6.75,12" id="Icon"></path>
            </g>
        </g>
    </g>
</svg>