<svg xmlns="http://www.w3.org/2000/svg" viewBox="0 0 24 24"><defs><style>.a{fill:none;stroke:#000;stroke-linecap:round;stroke-linejoin:round;}</style></defs><title>discount-bubble</title><line class="a" x1="8.03" y1="15.97" x2="16.03" y2="7.97"/><circle class="a" cx="9.03" cy="8.97" r="1.5"/><circle class="a" cx="15.03" cy="14.97" r="1.5"/><path class="a" d="M23.5,12a4,4,0,0,0-2.534-3.714,3.988,3.988,0,0,0-5.252-5.252,3.989,3.989,0,0,0-7.428,0A3.988,3.988,0,0,0,3.034,8.286a3.989,3.989,0,0,0,0,7.428,3.988,3.988,0,0,0,5.252,5.252,3.989,3.989,0,0,0,7.428,0,3.988,3.988,0,0,0,5.252-5.252A4,4,0,0,0,23.5,12Z"/></svg>