<?xml version="1.0" encoding="UTF-8"?>
<svg width="44px" height="44px" viewBox="0 0 44 44" version="1.1" xmlns="http://www.w3.org/2000/svg" xmlns:xlink="http://www.w3.org/1999/xlink">
    <!-- Generator: sketchtool 63.1 (101010) - https://sketch.com -->
    <title>E9402586-5534-412A-8FB3-F5A8DA98F81F</title>
    <desc>Created with sketchtool.</desc>
    <g id="v1.0-Add-ons-page" stroke="none" stroke-width="1" fill="none" fill-rule="evenodd" stroke-linecap="round" stroke-linejoin="round">
        <g id="Icons-sheet" transform="translate(-75.000000, -159.000000)" stroke="#EC4141" stroke-width="2.65356001">
            <g id="Icon-/-alert-triangle" transform="translate(77.000000, 161.000000)">
                <path d="M19.9180801,31.8591002 L19.9180801,31.8591002 C19.5516995,31.8591002 19.2546901,32.1561096 19.2546901,32.5224902 C19.2546901,32.8888708 19.5516995,33.1858802 19.9180801,33.1858802 C20.2844607,33.1858802 20.5814701,32.8888708 20.5814701,32.5224902 L20.5814701,32.5224902 C20.5814701,32.1561097 20.2844607,31.8591002 19.9180801,31.8591002 L19.9180801,31.8591002 M19.9180801,26.5519802 L19.9180801,13.2841801 M22.785694,1.80311043 L22.7856941,1.80311057 C22.0077587,0.21937043 20.0932505,-0.433858208 18.5094998,0.344073598 C17.8751663,0.655659922 17.3620491,1.16877705 17.0504628,1.80311057 L0.292346796,35.9420447 L0.292346768,35.9420447 C-0.363229386,37.2756603 0.186428682,38.8882217 1.52004284,39.5437925 C1.8899438,39.7256286 2.29667618,39.8197793 2.70885542,39.8197793 L37.1272979,39.8197793 L37.1272979,39.8197793 C38.6133358,39.8207648 39.8188039,38.6168934 39.8197951,37.1308555 C39.8197951,36.7186763 39.7256441,36.3119457 39.5438084,35.942043 L22.785694,1.80311043 Z" id="Icon"></path>
            </g>
        </g>
    </g>
</svg>