<svg width="97" height="102" viewBox="0 0 97 102" fill="none" xmlns="http://www.w3.org/2000/svg">
<path d="M77.9118 55.6044C78.8354 56.8169 80.0376 57.7889 81.4167 58.438C82.7958 59.0871 84.311 59.3942 85.8339 59.3332C90.6835 59.3332 94.6211 56.38 94.6211 52.7407C94.6211 49.1014 90.6835 46.1481 85.8339 46.1481C80.9844 46.1481 77.0425 43.1949 77.0425 39.5514C77.0425 35.9078 80.9801 32.9588 85.8339 32.9588C87.3556 32.8986 88.8693 33.206 90.2469 33.8551C91.6245 34.5042 92.8253 35.4758 93.7475 36.6876" stroke="#39464E" stroke-width="4.5" stroke-linecap="round" stroke-linejoin="round"/>
<path d="M85.832 59.3328V63.7264" stroke="#39464E" stroke-width="4.5" stroke-linecap="round" stroke-linejoin="round"/>
<path d="M85.832 28.5692V32.9585" stroke="#39464E" stroke-width="4.5" stroke-linecap="round" stroke-linejoin="round"/>
<path d="M3 79.7068H60.5301V86.099C60.5301 89.4897 59.1832 92.7415 56.7856 95.139C54.3881 97.5366 51.1363 98.8835 47.7456 98.8835H15.7845C12.3938 98.8835 9.14204 97.5366 6.74448 95.139C4.34693 92.7415 3 89.4897 3 86.099V15.7845C3 12.3938 4.34693 9.14204 6.74448 6.74448C9.14204 4.34693 12.3938 3 15.7845 3H47.7456C51.1363 3 54.3881 4.34693 56.7856 6.74448C59.1832 9.14204 60.5301 12.3938 60.5301 15.7845V22.1767" stroke="#39464E" stroke-width="4.5" stroke-linecap="round" stroke-linejoin="round"/>
<path d="M47.7461 34.9615H60.5306" stroke="#39464E" stroke-width="4.5" stroke-linecap="round" stroke-linejoin="round"/>
<path d="M47.7461 60.5304H60.5306" stroke="#39464E" stroke-width="4.5" stroke-linecap="round" stroke-linejoin="round"/>
<path d="M38.1567 47.7458H66.9218" stroke="#39464E" stroke-width="4.5" stroke-linecap="round" stroke-linejoin="round"/>
<path d="M28.5682 47.7458H25.3721" stroke="#39464E" stroke-width="4.5" stroke-linecap="round" stroke-linejoin="round"/>
<path d="M38.1571 34.9615H34.9609" stroke="#39464E" stroke-width="4.5" stroke-linecap="round" stroke-linejoin="round"/>
<path d="M38.1571 60.5304H34.9609" stroke="#39464E" stroke-width="4.5" stroke-linecap="round" stroke-linejoin="round"/>
</svg>
