<svg width="240" height="220" viewBox="0 0 240 220" fill="none" xmlns="http://www.w3.org/2000/svg">
    <ellipse cx="120.5" cy="191.11" rx="21.6296" ry="109.5" transform="rotate(-90 120.5 191.11)" fill="#FA6168" fill-opacity="0.2"/>
    <path d="M49.1826 121.652C49.1826 119.443 50.9735 117.652 53.1826 117.652H186.148C188.357 117.652 190.148 119.443 190.148 121.652V188.471C190.148 192.89 186.566 196.471 182.148 196.471H57.1826C52.7643 196.471 49.1826 192.89 49.1826 188.471V121.652Z" fill="#FC1A40"/>
    <rect x="103.749" y="117.651" width="33.3466" height="78.8192" fill="#FFCD34"/>
    <rect width="42.3204" height="71.357" rx="19" transform="matrix(0.984808 -0.173648 -0.173648 -0.984808 101.401 105.064)" fill="#FE9923"/>
    <rect width="42.3204" height="71.357" rx="19" transform="matrix(0.642788 0.766044 0.766044 -0.642788 114.826 87.432)" fill="#FE9923"/>
    <path d="M47.8964 80.157C47.1408 82.2329 48.2112 84.5283 50.2871 85.2839L195.545 138.153C197.621 138.909 199.916 137.838 200.671 135.763L210.565 108.582C212.076 104.43 209.935 99.8391 205.783 98.3279L68.0431 48.1947C63.8913 46.6835 59.3006 48.8242 57.7895 52.9761L47.8964 80.157Z" fill="#FF3E75"/>
    <rect width="33.3466" height="40.9254" transform="matrix(0.939693 0.34202 0.34202 -0.939693 107.962 106.277)" fill="#FCBF29"/>
</svg>
