<svg id="Light" xmlns="http://www.w3.org/2000/svg" viewBox="0 0 24 24"><defs><style>.cls-1{fill:none;stroke:#000;stroke-linecap:round;stroke-linejoin:round;}</style></defs><title>hair-dress-chair</title><line class="cls-1" x1="12" y1="21" x2="12" y2="16.5"/><path class="cls-1" d="M18,14.5a2.238,2.238,0,0,0,2.181-1.992L20.5,9"/><path class="cls-1" d="M6,14.5a2.238,2.238,0,0,1-2.181-1.992L3.5,9"/><path class="cls-1" d="M17,13.139C15.874,7.325,17,4.021,17,2.5a2,2,0,0,0-2-2H9a2,2,0,0,0-2,2C7,4.021,8.126,7.325,7,13.139"/><line class="cls-1" x1="7.09" y1="3.5" x2="16.91" y2="3.5"/><path class="cls-1" d="M22.5,8.5A.5.5,0,0,1,22,9H19a.5.5,0,0,1-.5-.5,2,2,0,0,1,4,0Z"/><path class="cls-1" d="M5.5,8.5A.5.5,0,0,1,5,9H2a.5.5,0,0,1-.5-.5,2,2,0,0,1,4,0Z"/><path class="cls-1" d="M17.591,22.377C13.681,21.2,13.257,21,12,21s-1.681.2-5.591,1.377A.574.574,0,0,0,6.573,23.5H17.427a.574.574,0,0,0,.164-1.123Z"/><path class="cls-1" d="M18,15.5a1,1,0,0,1-1,1H7a1,1,0,0,1-1-1V14.184a1,1,0,0,1,.686-.95A17.1,17.1,0,0,1,12,12.5a17.1,17.1,0,0,1,5.314.734,1,1,0,0,1,.686.95Z"/></svg>