<svg width="103" height="103" viewBox="0 0 103 103" fill="none" xmlns="http://www.w3.org/2000/svg">
<path d="M80.5997 60.139L59.9624 64.2648" stroke="#39464E" stroke-width="4.5" stroke-linecap="round" stroke-linejoin="round"/>
<path d="M62.0095 40.8561L52.2664 44.9732C51.4978 45.2909 50.6724 45.4486 49.8408 45.4368C49.0092 45.4249 48.1886 45.2437 47.4294 44.9042C46.6593 44.5603 45.9651 44.0669 45.3871 43.4527C44.8091 42.8385 44.3589 42.1156 44.0624 41.326C43.4782 39.8249 43.4654 38.1615 44.0264 36.6516C44.5875 35.1417 45.6833 33.8903 47.106 33.1349L56.8448 28.2763C57.8978 27.7305 59.0537 27.4124 60.2377 27.3425C61.4216 27.2727 62.607 27.4528 63.7167 27.871L83.716 35.7517" stroke="#39464E" stroke-width="4.5" stroke-linecap="round" stroke-linejoin="round"/>
<path d="M22.1851 64.4334H29.0828L42.2274 74.461C42.8423 75.1558 43.7029 75.5846 44.6279 75.657C45.5528 75.7294 46.4697 75.4397 47.1852 74.849L65.5505 59.6825C66.2763 59.0818 66.7401 58.2224 66.8439 57.286C66.9477 56.3495 66.6833 55.4094 66.1067 54.6644L55.9885 43.4167" stroke="#39464E" stroke-width="4.5" stroke-linecap="round" stroke-linejoin="round"/>
<path d="M46.0523 33.8247L44.9875 32.9625C43.9316 32.1835 42.6943 31.6871 41.3929 31.5204C40.0914 31.3537 38.7689 31.5221 37.5508 32.0097L22.1602 38.5669" stroke="#39464E" stroke-width="4.5" stroke-linecap="round" stroke-linejoin="round"/>
<path d="M5.75781 67.6664H17.2254C18.5233 67.7359 19.796 67.2888 20.7654 66.4228C21.7348 65.5569 22.322 64.3424 22.3987 63.0449V39.9502C22.3209 38.6535 21.7332 37.4401 20.764 36.5751C19.7947 35.71 18.5226 35.2635 17.2254 35.333H5.75781" stroke="#39464E" stroke-width="4.5" stroke-linecap="round" stroke-linejoin="round"/>
<path d="M97.241 67.6664H85.7734C84.4755 67.7359 83.2028 67.2888 82.2334 66.4228C81.264 65.5569 80.6768 64.3424 80.6001 63.0449V39.9502C80.6779 38.6535 81.2656 37.4401 82.2348 36.5751C83.2041 35.71 84.4762 35.2635 85.7734 35.333H97.241" stroke="#39464E" stroke-width="4.5" stroke-linecap="round" stroke-linejoin="round"/>
<path d="M51.5 100C78.2858 100 100 78.2858 100 51.5C100 24.7142 78.2858 3 51.5 3C24.7142 3 3 24.7142 3 51.5C3 78.2858 24.7142 100 51.5 100Z" stroke="#39464E" stroke-width="4.5" stroke-linecap="round" stroke-linejoin="round"/>
</svg>
