<?xml version="1.0" encoding="UTF-8"?>
<svg width="40px" height="40px" viewBox="0 0 40 30" version="1.1" xmlns="http://www.w3.org/2000/svg" xmlns:xlink="http://www.w3.org/1999/xlink">
    <!-- Generator: sketchtool 63.1 (101010) - https://sketch.com -->
    <title>0193034A-F563-431B-BE34-BAA9DF201F16</title>
    <desc>Created with sketchtool.</desc>
    <g id="v1.0-Add-ons-page" stroke="none" stroke-width="1" fill="none" fill-rule="evenodd" stroke-linecap="round" stroke-linejoin="round">
        <g id="Icons-sheet" transform="translate(-21.000000, -174.000000)" stroke="#39464E" stroke-width="2.46509997">
            <g id="Icon-/-Identity" transform="translate(22.000000, 175.000000)">
                <path d="M12.75,14 C15.1662458,14 17.125,12.0412458 17.125,9.625 C17.125,7.20875422 15.1662458,5.25 12.75,5.25 C10.3337542,5.25 8.375,7.20875422 8.375,9.625 C8.375,12.0412458 10.3337542,14 12.75,14 Z M5.25,22.7500001 C5.25,18.6078644 8.60786442,15.2500001 12.75,15.2500001 C16.8921356,15.2500001 20.25,18.6078644 20.25,22.7500001 L5.25,22.7500001 Z M22.75,10.6666667 L32.75,10.6666667 M22.75,15.6666667 L32.75,15.6666667 M35.25,0.666666667 L2.75,0.666666667 C1.36928813,0.666666667 0.25,1.66158944 0.25,2.88888889 L0.25,25.1111111 C0.25,26.3384106 1.36928813,27.3333333 2.75,27.3333333 L35.25,27.3333333 C36.6307119,27.3333333 37.75,26.3384106 37.75,25.1111111 L37.75,2.88888889 C37.75,1.66158944 36.6307119,0.666666667 35.25,0.666666667 Z" id="Combined-Shape"></path>
            </g>
        </g>
    </g>
</svg>