<?xml version="1.0" encoding="UTF-8"?>
<svg width="24px" height="24px" viewBox="0 0 16 24" version="1.1" xmlns="http://www.w3.org/2000/svg" xmlns:xlink="http://www.w3.org/1999/xlink">
    <!-- Generator: sketchtool 63.1 (101010) - https://sketch.com -->
    <title>0FCD9805-E64F-4822-9553-328B1BED8BE2</title>
    <desc>Created with sketchtool.</desc>
    <g id="v1.0-Add-ons-page" stroke="none" stroke-width="1" fill="none" fill-rule="evenodd" stroke-linecap="round" stroke-linejoin="round">
        <g id="Icons-sheet" transform="translate(-33.000000, -230.000000)" stroke="#39464E" stroke-width="1.5">
            <g id="Icon-/-mobile-phone-blackberry" transform="translate(34.000000, 230.000000)">
                <path d="M3.25,23.25 C1.59316,23.25 0.25,21.90684 0.25,20.25 L0.25,6.75 C0.25,5.09316 1.59316,3.75 3.25,3.75 L10.75,3.75 C12.40684,3.75 13.75,5.09316 13.75,6.75 L13.75,20.25 C13.75,21.90684 12.40684,23.25 10.75,23.25 L3.25,23.25 Z" id="Path"></path>
                <line x1="3.25" y1="3.75" x2="3.25" y2="0.75" id="Path"></line>
                <path d="M5.12499998,15.375 L5.12499998,15.375 C4.91789298,15.375 4.74999998,15.542893 4.74999998,15.75 C4.74999999,15.957107 4.91789298,16.125 5.12499998,16.125 C5.33210698,16.125 5.49999998,15.957107 5.49999998,15.75 L5.49999998,15.75 C5.49999998,15.542893 5.33210698,15.375 5.12499998,15.375" id="Path"></path>
                <path d="M9.24999998,15.375 L9.24999998,15.375 C9.04289298,15.375 8.87499998,15.542893 8.87499998,15.75 C8.87499999,15.957107 9.04289298,16.125 9.24999998,16.125 C9.45710698,16.125 9.62499998,15.957107 9.62499998,15.75 L9.62499998,15.75 C9.62499998,15.542893 9.45710698,15.375 9.24999998,15.375" id="Path"></path>
                <path d="M5.12499998,19.125 L5.12499998,19.125 C4.91789298,19.125 4.74999998,19.292893 4.74999998,19.5 C4.74999999,19.707107 4.91789298,19.875 5.12499998,19.875 C5.33210698,19.875 5.49999998,19.707107 5.49999998,19.5 L5.49999998,19.5 C5.49999998,19.292893 5.33210698,19.125 5.12499998,19.125" id="Path"></path>
                <path d="M9.24999998,19.125 L9.24999998,19.125 C9.04289298,19.125 8.87499998,19.292893 8.87499998,19.5 C8.87499999,19.707107 9.04289298,19.875 9.24999998,19.875 C9.45710698,19.875 9.62499998,19.707107 9.62499998,19.5 L9.62499998,19.5 C9.62499998,19.292893 9.45710698,19.125 9.24999998,19.125" id="Path"></path>
                <line x1="0.25" y1="12.75" x2="13.75" y2="12.75" id="Path"></line>
            </g>
        </g>
    </g>
</svg>