<?xml version="1.0" encoding="UTF-8"?>
<svg width="24px" height="24px" viewBox="0 0 24 18" version="1.1" xmlns="http://www.w3.org/2000/svg" xmlns:xlink="http://www.w3.org/1999/xlink">
    <!-- Generator: sketchtool 63.1 (101010) - https://sketch.com -->
    <title>B9B7E9C9-8BE0-47A6-B466-1F139844AF72</title>
    <desc>Created with sketchtool.</desc>
    <g id="v1.0-Add-ons-page" stroke="none" stroke-width="1" fill="none" fill-rule="evenodd" stroke-linecap="round" stroke-linejoin="round">
        <g id="Icons-sheet" transform="translate(-209.000000, -233.000000)" stroke="#39464E" stroke-width="1.5">
            <g id="Icon-/-mobile-phone-blackberry" transform="translate(209.000000, 233.000000)">
                <path d="M14.251,1.416 L14.251,1.41599998 C16.16137,0.174809976 18.71622,0.717289976 19.95741,2.62765998 C21.1986,4.53802998 20.65612,7.09287998 18.74575,8.33406998 C17.63408,9.05633298 16.24302,9.20029498 15.007,8.72099598 M14.9999993,10.667 L14.9999993,10.6670002 C18.6395493,9.84243616 22.2584293,12.1244402 23.0829993,15.7639902 C23.1934753,16.2516232 23.2494873,16.7500112 23.2500043,17.2500002 M14.248,3.834 L14.248,3.834 C15.3347405,4.51586431 16.5920605,4.87673031 17.8750005,4.8750065 L17.8750004,4.8750065 C18.8075784,4.87574209 19.7304704,4.68585631 20.5870004,4.31700031 M0.75,17.250001 L0.75,17.250001 C0.75,13.522081 3.77208,10.500001 7.5,10.500001 C11.22792,10.500001 14.25,13.522081 14.25,17.250001 C14.25,17.250001 14.25,17.250001 14.25,17.250001 M3.388,5.2 L3.376,5.978 L3.37599998,5.97799955 C3.41518528,7.12912955 3.11657598,8.26655955 2.51699998,9.24999955 M11.623,4.986 L11.623,5.986 L11.623,5.986 C11.5841152,7.13723134 11.883075,8.27467134 12.483001,9.25800134 M3.38799991,5.2 L3.38799991,5.2 C4.96764991,5.19017003 6.46630991,4.499518 7.49999991,3.30499993 L7.49999985,3.30499993 C8.53276985,4.50137993 10.0315599,5.19390993 11.6119999,5.20499993 M10.4168,1.95818 C12.02771,3.56909 12.02771,6.1809 10.4168,7.79181 C8.80589,9.40272 6.19408,9.40272 4.58317,7.79181 C2.97226,6.1809 2.97226,3.56909 4.58317,1.95818 C6.19408,0.34727 8.80589,0.34727 10.4168,1.95818" id="Icon"></path>
            </g>
        </g>
    </g>
</svg>