<svg width="102" height="102" viewBox="0 0 102 102" fill="none" xmlns="http://www.w3.org/2000/svg">
<path d="M56.3359 3.28497C57.397 3.40429 58.4667 3.55345 59.5022 3.74095" stroke="#39464E" stroke-width="4.5" stroke-linecap="round" stroke-linejoin="round"/>
<path d="M77.1099 10.9308L79.7264 12.7675" stroke="#39464E" stroke-width="4.5" stroke-linecap="round" stroke-linejoin="round"/>
<path d="M92.5244 26.8427C93.0614 27.7632 93.5642 28.705 94.0415 29.6596" stroke="#39464E" stroke-width="4.5" stroke-linecap="round" stroke-linejoin="round"/>
<path d="M38.0668 97.0597C37.0324 96.8039 36.0172 96.4764 35.0283 96.0795" stroke="#39464E" stroke-width="4.5" stroke-linecap="round" stroke-linejoin="round"/>
<path d="M18.8136 86.1326L16.5337 83.8995" stroke="#39464E" stroke-width="4.5" stroke-linecap="round" stroke-linejoin="round"/>
<path d="M6.21621 67.9276C5.83551 66.9247 5.49033 65.9147 5.18066 64.8976" stroke="#39464E" stroke-width="4.5" stroke-linecap="round" stroke-linejoin="round"/>
<path d="M73.4317 98.8833C87.5531 98.8833 99.0007 87.4357 99.0007 73.3144C99.0007 59.1931 87.5531 47.7455 73.4317 47.7455C59.3104 47.7455 47.8628 59.1931 47.8628 73.3144C47.8628 87.4357 59.3104 98.8833 73.4317 98.8833Z" stroke="#39464E" stroke-width="4.5" stroke-linecap="round" stroke-linejoin="round"/>
<path d="M84.8216 65.8776L72.442 82.3866C72.1667 82.7527 71.816 83.0555 71.4137 83.2744C71.0113 83.4934 70.5667 83.6234 70.1098 83.6557C69.6529 83.688 69.1944 83.6219 68.7652 83.4618C68.3361 83.3016 67.9463 83.0513 67.6222 82.7275L61.23 76.3353" stroke="#39464E" stroke-width="4.5" stroke-linecap="round" stroke-linejoin="round"/>
<path d="M34.9572 15.7844H26.2935C24.9658 15.7854 23.6797 16.2482 22.656 17.0937C21.6322 17.9391 20.9345 19.1145 20.6825 20.4181C20.4306 21.7217 20.6401 23.0724 21.2751 24.2385C21.9101 25.4045 22.931 26.3133 24.1628 26.8089L32.9585 30.3246C34.193 30.8185 35.2169 31.7271 35.854 32.8941C36.4912 34.0612 36.7017 35.4138 36.4495 36.7193C36.1973 38.0248 35.498 39.2016 34.472 40.0473C33.446 40.8931 32.1574 41.3549 30.8278 41.3534H22.1727" stroke="#39464E" stroke-width="4.5" stroke-linecap="round" stroke-linejoin="round"/>
<path d="M28.5693 15.7843V12.5882" stroke="#39464E" stroke-width="4.5" stroke-linecap="round" stroke-linejoin="round"/>
<path d="M28.5693 44.5494V41.3533" stroke="#39464E" stroke-width="4.5" stroke-linecap="round" stroke-linejoin="round"/>
<path d="M28.5689 54.1379C42.6903 54.1379 54.1379 42.6903 54.1379 28.5689C54.1379 14.4476 42.6903 3 28.5689 3C14.4476 3 3 14.4476 3 28.5689C3 42.6903 14.4476 54.1379 28.5689 54.1379Z" stroke="#39464E" stroke-width="4.5" stroke-linecap="round" stroke-linejoin="round"/>
</svg>
