<svg xmlns="http://www.w3.org/2000/svg" viewBox="0 0 24 24"><defs><style>.a{fill:none;stroke:#000;stroke-linecap:round;stroke-linejoin:round;}</style></defs><title>official-building-2</title><path class="a" d="M1.5,23.5l.9-3.621A.5.5,0,0,1,2.89,19.5H21.11a.5.5,0,0,1,.485.379L22.5,23.5"/><line class="a" x1="3.5" y1="10.5" x2="3.5" y2="19.5"/><line class="a" x1="5.5" y1="10.5" x2="5.5" y2="19.5"/><line class="a" x1="8.5" y1="10.5" x2="8.5" y2="19.5"/><line class="a" x1="10.5" y1="10.5" x2="10.5" y2="19.5"/><line class="a" x1="13.5" y1="10.5" x2="13.5" y2="19.5"/><line class="a" x1="15.5" y1="10.5" x2="15.5" y2="19.5"/><line class="a" x1="18.5" y1="10.5" x2="18.5" y2="19.5"/><line class="a" x1="20.5" y1="10.5" x2="20.5" y2="19.5"/><path class="a" d="M21,7.5c0-2.762-2-7-9-7s-9,4.238-9,7"/><path class="a" d="M22.281,8.158a.5.5,0,0,0-.475-.658H2.194a.5.5,0,0,0-.475.658l.667,2a.5.5,0,0,0,.474.342H21.14a.5.5,0,0,0,.474-.342Z"/><line class="a" x1="0.5" y1="23.5" x2="23.5" y2="23.5"/><line class="a" x1="2" y1="21.5" x2="22" y2="21.5"/></svg>