<?xml version="1.0" encoding="UTF-8"?>
<svg width="18px" height="18px" viewBox="0 0 18 23" version="1.1" xmlns="http://www.w3.org/2000/svg" xmlns:xlink="http://www.w3.org/1999/xlink">
    <title>Icon / Padlock</title>
    <g id="Save-cards---Final-UI-for-client-page-" stroke="none" stroke-width="1" fill="none" fill-rule="evenodd" stroke-linecap="round" stroke-linejoin="round">
        <g id="1.1-Client-profile-add-card-details-default" transform="translate(-376.000000, -674.000000)" stroke="#39464E" stroke-width="1.5">
            <g id="Modal" transform="translate(333.000000, 224.000000)">
                <g id="Consent-form" transform="translate(24.000000, 434.000000)">
                    <g id="Icon-/-Padlock" transform="translate(19.000000, 17.000000)">
                        <path d="M15.75,7.75 C16.5784271,7.75 17.25,8.42157288 17.25,9.25 L17.25,19.75 C17.25,20.5784271 16.5784271,21.25 15.75,21.25 L2.25,21.25 C1.42157288,21.25 0.75,20.5784271 0.75,19.75 L0.75,9.25 C0.75,8.42157288 1.42157288,7.75 2.25,7.75 L15.75,7.75 Z M9.25,1.86517468e-14 C12.1494949,1.86517468e-14 14.5,2.35050506 14.5,5.25 L14.5,7.75 L4,7.75 L4,5.25 C4,2.35050506 6.35050506,1.86517468e-14 9.25,1.86517468e-14 Z M9,13 L9,16" id="Combined-Shape"></path>
                    </g>
                </g>
            </g>
        </g>
    </g>
</svg>
