<svg xmlns="http://www.w3.org/2000/svg" viewBox="0 0 24 24"><defs><style>.a{fill:none;stroke:#000;stroke-linecap:round;stroke-linejoin:round;}</style></defs><title>saving-piggy-bank</title><path class="a" d="M12,6.5a7.477,7.477,0,0,1,5,1.482"/><path class="a" d="M23.5,9.5a2,2,0,0,1-2,2"/><path class="a" d="M9.55,3.78A3.5,3.5,0,0,0,5.625,2.113a.5.5,0,0,0-.217.847A3.5,3.5,0,0,1,6.4,4.646a.5.5,0,0,1-.212.541A7.811,7.811,0,0,0,2.578,10.5H1.5a1,1,0,0,0-1,1v2a1,1,0,0,0,1,1H3.2a9.631,9.631,0,0,0,8.8,5c5.247,0,9.5-3.581,9.5-8C21.5,6.333,15.7,2.4,9.55,3.78Z"/><path class="a" d="M6,9.75a.25.25,0,1,1-.25.25A.251.251,0,0,1,6,9.75"/><line class="a" x1="7.504" y1="18.546" x2="6.504" y2="22"/><line class="a" x1="16.504" y1="18.546" x2="17.504" y2="22"/></svg>