<svg xmlns="http://www.w3.org/2000/svg" viewBox="0 0 24 24"><defs><style>.a{fill:none;stroke:#000;stroke-linecap:round;stroke-linejoin:round;}</style></defs><title>shopping-bag-smile</title><path class="a" d="M7.75,14.5a.25.25,0,1,1-.25.25.25.25,0,0,1,.25-.25"/><path class="a" d="M16.25,14.5a.25.25,0,1,1-.25.25.25.25,0,0,1,.25-.25"/><path class="a" d="M15.742,17.5a4.5,4.5,0,0,1-7.485,0"/><path class="a" d="M7.5,9.5V5a4.5,4.5,0,0,1,9,0V9.5"/><path class="a" d="M21.466,20.5l-.9-13a1.072,1.072,0,0,0-1.069-1H4.5a1.072,1.072,0,0,0-1.069,1l-.9,13q-.034.5-.034,1a2,2,0,0,0,2,2h15a2,2,0,0,0,2-2Q21.5,21,21.466,20.5Z"/></svg>