<svg xmlns="http://www.w3.org/2000/svg" viewBox="0 0 24 24"><defs><style>.a{fill:none;stroke:#000;stroke-linecap:round;stroke-linejoin:round;}</style></defs><title>shop-1</title><path class="a" d="M3.689,2a1,1,0,0,0-.934.644L1.174,6.792A2,2,0,0,0,1.16,8.177,2.751,2.751,0,0,0,6.5,7.25a2.75,2.75,0,0,0,5.5,0,2.75,2.75,0,0,0,5.5,0,2.751,2.751,0,0,0,5.34.927,1.994,1.994,0,0,0-.015-1.385l-1.58-4.148A1,1,0,0,0,20.311,2Z"/><rect class="a" x="4.957" y="13" width="7" height="6" rx="0.5" ry="0.5"/><path class="a" d="M13.957,22V13.5a.5.5,0,0,1,.5-.5h4a.5.5,0,0,1,.5.5V22"/><path class="a" d="M20.957,9.908V21a1,1,0,0,1-1,1h-16a1,1,0,0,1-1-1V9.884"/></svg>