<svg xmlns="http://www.w3.org/2000/svg" viewBox="0 0 24 24"><defs><style>.a{fill:none;stroke:#000;stroke-linecap:round;stroke-linejoin:round;}</style></defs><title>shop-barista</title><path class="a" d="M.5,23.25v-5a1,1,0,0,1,1-1h21a1,1,0,0,1,1,1v5"/><path class="a" d="M1.5,17.25v-1a1,1,0,0,1,1-1h8a1,1,0,0,1,1,1v1"/><path class="a" d="M2.5,15.25v-4a2,2,0,0,1,2-2h4a2,2,0,0,1,2,2v4"/><line class="a" x1="4.5" y1="9.25" x2="4.5" y2="7.25"/><rect class="a" x="2.5" y="5.25" width="4" height="2" rx="0.5" ry="0.5"/><line class="a" x1="5.5" y1="11.25" x2="7.5" y2="11.25"/><line class="a" x1="0.5" y1="20.25" x2="23.5" y2="20.25"/><path class="a" d="M12.5,14.25a5.5,5.5,0,1,1,11,0v1"/><circle class="a" cx="18" cy="4" r="3.25"/><line class="a" x1="12.5" y1="3.25" x2="21.163" y2="3.25"/><line class="a" x1="14.5" y1="10.009" x2="14.5" y2="15.25"/><line class="a" x1="21.5" y1="10.009" x2="21.5" y2="15.25"/><path class="a" d="M19.5,8.958V11.25a1,1,0,0,1-1,1h-1a1,1,0,0,1-1-1V8.958"/><line class="a" x1="16.5" y1="14.25" x2="19.5" y2="14.25"/></svg>