<svg xmlns="http://www.w3.org/2000/svg" viewBox="0 0 24 24"><defs><style>.a{fill:none;stroke:#000;stroke-linecap:round;stroke-linejoin:round;}</style></defs><title>smartphone-pay-dollar-1</title><line class="a" x1="13.504" y1="19.5" x2="0.504" y2="19.5"/><path class="a" d="M7,21.25H7a.25.25,0,0,1,.25.25h0a.25.25,0,0,1-.25.25H7a.25.25,0,0,1-.25-.25h0A.25.25,0,0,1,7,21.25"/><path class="a" d="M13.5,13.5v8a2,2,0,0,1-2,2h-9a2,2,0,0,1-2-2V2.5a2,2,0,0,1,2-2h9"/><path class="a" d="M19,3.5H16.971a1.342,1.342,0,0,0-.5,2.587l2.064.826a1.342,1.342,0,0,1-.5,2.587H16"/><line class="a" x1="17.504" y1="10.5" x2="17.504" y2="9.5"/><line class="a" x1="17.504" y1="3.5" x2="17.504" y2="2.5"/><circle class="a" cx="17.504" cy="6.5" r="6"/></svg>