<?xml version="1.0" encoding="UTF-8"?>
<svg width="205px" height="46px" viewBox="0 0 205 46" version="1.1" xmlns="http://www.w3.org/2000/svg" xmlns:xlink="http://www.w3.org/1999/xlink">
    <g stroke="none" stroke-width="1" fill="none" fill-rule="evenodd">
        <g transform="translate(-281.000000, -309.000000)" fill-rule="nonzero">
            <g transform="translate(281.000000, 309.000000)">
                <g>
                    <path d="M34.1603452,4.13111889 L28.9290857,9.25038334 C28.566559,9.60514872 28.0445207,9.25038334 28.0445207,9.25038334 L21.3377777,2.57724652 C19.1732601,0.473010824 15.6789702,0.473010824 13.5144527,2.57724652 L13.5144527,2.57724652 C11.360214,4.69382183 11.360214,8.11650814 13.5144527,10.2330834 L24.6258944,21.11019 C26.7908353,23.2167763 30.2879038,23.2167763 32.4528447,21.11019 L41.7516532,12.010458 L43.3793978,10.3749896 C43.915223,9.85007098 44.6423044,9.55512725 45.4004839,9.55512725 C46.1586634,9.55512725 46.8857448,9.85007098 47.4215699,10.3749896 C47.9529509,10.8855154 48.2501915,11.5850072 48.2454093,12.3137181 C48.2406271,13.042429 47.9342306,13.7381272 47.3961931,14.2419323 L45.7176947,15.8951389 L28.8275782,32.4307533 C28.6960052,32.5679443 28.5123046,32.6457676 28.3200409,32.6457676 C28.1277772,32.6457676 27.9440766,32.5679443 27.8125036,32.4307533 L9.43965314,14.4512438 C7.27389553,12.3465957 3.77846044,12.3465957 1.61270283,14.4512438 L1.61270283,14.4512438 C-0.53756761,16.5694216 -0.53756761,19.988903 1.61270283,22.1070808 L24.5207617,44.5247052 L24.4011279,44.4218232 C26.5656454,46.5260589 30.0599354,46.5260589 32.2244529,44.4218232 L53.5518955,23.5509759 L53.7766621,23.3310213 C57.3756804,19.9208212 58.8165136,14.8767871 57.5462365,10.1345864 C56.2759594,5.39238568 52.4918891,1.68864352 47.6461773,0.44468522 C42.8004654,-0.799273084 37.6458158,0.609781514 34.1603452,4.13111889 L34.1603452,4.13111889 Z" id="Path" fill="#786DFF"></path>
                    <path d="M86.2222775,37.5651117 L73.6708013,37.5651117 L73.6708013,18.7278708 C73.6414342,18.3182637 73.2761527,18 72.8354007,18 C72.3946486,18 72.0293671,18.3182637 72,18.7278708 L72,38.2236353 C72.0098567,38.6485489 72.3773337,38.9908194 72.8335401,39 L86.2297198,39 C86.6551338,39 87,38.6787893 87,38.2825559 C87,37.8863225 86.6551338,37.5651118 86.2297198,37.5651117 L86.2222775,37.5651117 Z" id="Path" fill="#010101"></path>
                    <path d="M103.626285,18.739594 C103.470391,18.2982701 103.036071,18.0007097 102.546779,18 L102.485607,18 C101.995594,17.9985825 101.560102,18.2969456 101.4061,18.739594 L92.1223441,37.8798805 C92.0441455,38.0264176 92.0022921,38.188063 92,38.3523956 C92.0213235,38.7252793 92.3526721,39.0131578 92.7448595,38.9995359 C93.104103,38.9946242 93.4185932,38.7687984 93.5221042,38.4414202 L96.0661412,33.0930968 L108.872687,33.0930968 L111.416724,38.3969079 C111.538608,38.7281416 111.854991,38.9593083 112.222755,38.9858398 C112.424138,38.9904345 112.619185,38.9186901 112.764959,38.7864002 C112.910733,38.6541102 112.995284,38.4721195 113,38.2804911 C112.999782,38.115493 112.956506,37.953129 112.874058,37.807976 L103.626285,18.739594 Z M96,32 L102.024474,19 L108,32 L96,32 Z" id="Shape" fill="#010101"></path>
                    <path d="M133.135732,18 C132.813861,18.018494 132.525621,18.1867368 132.374262,18.4444621 L123.998096,29.2941601 L115.675233,18.451353 C115.520267,18.1854678 115.219147,18.0156504 114.887112,18.0068909 C114.412593,18.0117958 114.024099,18.3497824 114,18.77867 C114.008515,18.9472583 114.0649,19.1110154 114.163716,19.254141 L123.130021,30.6964552 L123.130021,38.2764284 C123.160068,38.6836161 123.53381,39 123.984771,39 C124.435731,39 124.809473,38.6836161 124.83952,38.2764284 L124.83952,30.6620007 L133.737293,19.3368316 C133.885803,19.1661542 133.97699,18.9604536 134,18.7442156 C133.966775,18.3317072 133.592657,18.0095564 133.135732,18 Z" id="Path" fill="#010101"></path>
                    <path d="M153.026496,28.0114289 C154.536708,27.1699042 155.805146,25.8519792 155.805146,23.4908417 L155.805146,23.4317263 C155.842574,22.0929902 155.317023,20.7991623 154.354501,19.8604623 C153.145631,18.660768 151.242974,18 148.825234,18 L141.326734,18 C140.707626,17.9953793 140.112555,18.2376195 139.675097,18.672411 C139.237639,19.1072025 138.994441,19.6981208 139,20.3125211 L139,36.6909565 C138.995386,37.3047565 139.239,37.894774 139.676354,38.3288087 C140.113709,38.7628434 140.708239,39.0046084 141.326734,39 L149.081024,39 C153.856937,39 157,37.0804225 157,33.2414007 L157,33.178808 C156.985984,30.3517022 155.475772,28.939888 153.026496,28.0114289 Z M144,22 L148.203848,22 C150.002749,22 151,22.8770556 151,24.43148 L151,24.4980423 C151,26.2560689 149.810353,27 147.928081,27 L144,27 L144,22 Z M153,32.5338855 C153,34.2206325 151.59468,35 149.26836,35 L143,35 L143,30 L149.097658,30 C151.801112,30 153,30.9412651 153,32.4698795 L153,32.5338855 Z" id="Shape" fill="#010101"></path>
                    <path d="M178.708472,18.0003131 C178.104784,17.9957514 177.524486,18.2316548 177.097602,18.6551664 C176.670717,19.078678 176.432935,19.6543906 176.437533,20.253309 L176.437533,29.9133686 C176.437533,33.160533 174.758269,34.8299216 171.991416,34.8299216 C169.224563,34.8299216 167.545299,33.1028509 167.545299,29.7674668 L167.545299,20.2668813 C167.497929,19.0556604 166.494436,18.0979748 165.27265,18.0979748 C164.050864,18.0979748 163.04737,19.0556604 163,20.2668813 L163,29.8964033 C163,35.925882 166.396149,39 171.940115,39 C177.48408,39 181,35.9462404 181,29.7505014 L181,20.253309 C181.004625,19.6508168 180.764041,19.0719418 180.332682,18.6478233 C179.901322,18.2237047 179.315696,17.990238 178.708472,18.0003131 L178.708472,18.0003131 Z" id="Path" fill="#010101"></path>
                    <path d="M202.671538,18.0030062 C201.679603,18.0030062 200.967997,18.5321127 200.378587,19.3684423 L195.016387,26.6428032 L189.744037,19.4162326 C189.154626,18.5935573 188.471773,18.0337285 187.386394,18.0337285 C186.765017,18.0190839 186.163259,18.2409745 185.715057,18.6500131 C185.266854,19.0590518 185.009401,19.621294 185,20.2115991 C185.005164,20.7986534 185.212136,21.3680284 185.589411,21.8330545 L192.597647,30.8722416 L192.597647,36.7333761 C192.597647,37.9851979 193.666072,39 194.984042,39 C196.302011,39 197.370436,37.9851979 197.370436,36.7333761 L197.370436,30.7834882 L204.378673,21.8023322 C204.751272,21.3446726 204.967038,20.7894365 204.996835,20.2115991 C205.030371,19.6166495 204.796174,19.036187 204.352617,18.6148915 C203.90906,18.1935961 203.297925,17.9711531 202.671538,18.0030062 L202.671538,18.0030062 Z" id="Path" fill="#010101"></path>
                </g>
            </g>
        </g>
    </g>
</svg>